<?xml version="1.0" encoding="utf-8"?>
<!-- Generator: Adobe Illustrator 19.0.0, SVG Export Plug-In . SVG Version: 6.00 Build 0)  -->
<svg version="1.1" id="图层_1" xmlns="http://www.w3.org/2000/svg" xmlns:xlink="http://www.w3.org/1999/xlink" x="0px" y="0px"
	 viewBox="0 0 100 20" style="enable-background:new 0 0 100 20;" xml:space="preserve">
<style type="text/css">
	.st0{fill:#2B937C;}
</style>
<g id="XMLID_155_">
	<path id="XMLID_127_" class="st0" d="M8.5,1.7c-0.7,0.4-1.3,0.7-2,1.1C5.7,3.2,5,3.7,4.1,4.1c1.8,1.1,3.5,2.2,5.3,3.4
		C9.1,7.8,8.8,7.9,8.5,8.1c-0.3,0.2-0.5,0.2-0.8,0C6.3,7.2,4.8,6.4,3.4,5.5C2.8,5.1,2.3,5,1.7,5.4c-0.6,0.4-0.6,0.9,0,1.3
		C2,6.9,2.3,7.1,2.6,7.3c1.6,1,3.2,1.9,4.7,3c1,0.7,1.8,0.6,2.8,0.1c0.9-0.5,1.7-1,2.6-1.6c0.3-0.2,0.6-0.4,1-0.6
		C12,7,10.4,6,8.7,4.9C9,4.7,9.2,4.6,9.4,4.4c0.3-0.2,0.5-0.3,0.9-0.1c1.4,0.8,2.8,1.6,4.3,2.4c1,0.5,1,0.5,1.7-0.3
		c0.3-0.3,0.2-0.8-0.2-1C13.8,4.2,11.5,3,9.3,1.7C9,1.6,8.7,1.6,8.5,1.7z"/>
	<path id="XMLID_128_" class="st0" d="M10,11.8c-0.8,0.4-1.6,0.4-2.4,0c-1.9-1.1-3.8-2.3-5.6-3.4C1.8,8.3,1.6,8.2,1.3,8.1
		c0,0.7,0,1.4,0,2c0,0.4,0.1,0.6,0.4,0.8c2,1.2,4,2.3,6.1,3.5c0.7,0.4,1.4,0.4,2.1,0.1c1.3-0.7,5.1-3,6.3-3.7
		c0.1-0.1,0.3-0.2,0.3-0.3c0-0.7,0-1.5,0-2.3c-0.2,0.1-0.4,0.2-0.6,0.3C14.8,9,11.2,11.2,10,11.8z"/>
	<path id="XMLID_129_" class="st0" d="M11.4,14.5c-0.6,0.3-1.1,0.6-1.7,0.9c-0.6,0.3-1.3,0.3-1.9-0.1c-0.5-0.3-1.1-0.6-1.6-0.9
		c-0.9-0.6-1.9-1.2-2.8-1.7c-0.6-0.4-1.3-0.8-2-1.2c0,0.8,0,1.5,0,2.2c0,0.1,0.1,0.3,0.2,0.3c2.1,1.2,4.1,2.5,6.2,3.7
		c0.7,0.4,1.5,0.4,2.2,0c1.3-0.7,5.2-3,6.4-3.7c0.1-0.1,0.3-0.2,0.3-0.3c0-0.7,0-1.5,0-2.2c-0.1,0-0.2,0-0.3,0.1
		C15.6,11.9,12.2,14,11.4,14.5z"/>
	<path id="XMLID_132_" class="st0" d="M9.1,0L9.1,0L0.3,5.1l-0.1,0v9.4L9.1,20l8.8-5.4l0,0V5.1L9.1,0z M17.7,14.5l-8.6,5.3l-8.6-5.3
		V5.3l8.6-5l8.6,5V14.5z"/>
	<g id="XMLID_139_">
		<path id="XMLID_141_" class="st0" d="M26.5,11.4c0,1,0,2-0.3,2.6c-0.3,0.4-0.7,0.8-1.3,1.1c-0.8,0.4-1.9,0.3-3,0.3h-0.4l0.2-2.3
			c0.3,0,1.4,0,1.6-0.1c0.5-0.2,0.6-0.6,0.6-1.2V4.6l2.6-0.2V11.4z"/>
		<path id="XMLID_145_" class="st0" d="M46.8,11v4.3h-2.3v-4.7c0-0.5-0.2-0.7-0.6-0.8c-0.2,0-0.5,0-0.8,0c-0.2,0.1-0.4,0.1-0.7,0.3
			v5.2h-2.3v-4.7c0-0.5-0.2-0.7-0.6-0.8c-0.2,0-0.3,0-0.4,0c-0.2,0-0.3,0.1-0.4,0.1c-0.2,0.1-0.4,0.1-0.5,0.2h0v5.2h-2.2V8h2
			c0,0,0,0.4,0,0.5l0.1,0c0,0,0.1-0.1,0.1-0.1c0.1-0.1,0.3-0.1,0.4-0.2C38.8,8.1,39,8,39.2,8c0.2-0.1,0.5-0.1,0.7-0.1h0.1
			c0.3,0,0.7,0,0.9,0.2c0.4,0.2,0.5,0.4,0.7,0.6c0,0,0,0,0,0c0.2-0.1,0.5-0.3,0.6-0.4C42.6,8.1,42.8,8,43,8c0.4-0.1,0.7-0.1,1-0.1
			c1.3,0,2.1,0.3,2.4,1C46.7,9.2,46.8,9.9,46.8,11z"/>
		<path id="XMLID_150_" class="st0" d="M59.5,15.5c-0.5,0-1.1,0-1.7-0.1c-0.2,0-0.5-0.1-0.7-0.1l-0.6-0.1l-0.3-2.6l0.6,0.3l0.8,0.2
			c0.3,0,0.6,0.1,0.9,0.1c0.3,0,0.6,0,0.9,0c1,0,1.5-0.2,1.7-0.7c0.1-0.2,0.1-0.7,0-0.9c-0.1-0.2-0.3-0.4-0.6-0.5
			c-0.1-0.1-0.3-0.1-0.5-0.2l-0.6-0.2c-0.3-0.1-0.5-0.1-0.7-0.2c-0.3-0.1-0.5-0.2-0.7-0.3c-0.5-0.2-0.9-0.5-1.2-0.8
			c-0.3-0.3-0.5-0.7-0.5-1.1c-0.1-0.3-0.1-0.7,0-1.1c0.1-1.1,0.6-1.9,1.5-2.3c0.3-0.2,0.7-0.3,1.1-0.4c0.2,0,0.4,0,0.6-0.1l0.6,0
			h0.4c0.4,0,0.9,0,1.5,0.1l0.6,0.1L63,5l0.3,2.5C63,7.3,62.5,7.1,62.1,7C61.5,7,61,6.9,60.5,6.9c-1,0-1.6,0.2-1.8,0.7
			c-0.1,0.2-0.1,0.4,0,0.5c0.1,0.2,0.3,0.4,0.6,0.5c0.1,0.1,0.3,0.1,0.5,0.2l1.3,0.4c0.3,0.1,0.5,0.2,0.7,0.2
			c0.5,0.2,0.9,0.4,1.1,0.7c0.3,0.3,0.5,0.7,0.6,1.1c0.1,0.3,0.1,1,0,1.4c-0.1,1.1-0.6,1.9-1.5,2.3c-0.3,0.2-0.7,0.3-1.1,0.4
			c-0.2,0-0.4,0-0.6,0.1l-0.5,0H59.5z"/>
		<path id="XMLID_157_" class="st0" d="M83.7,15.3h-2.9L78.3,8h2.7l1.3,5.3L83.6,8h2.7L83.7,15.3z"/>
	</g>
	<path id="XMLID_164_" class="st0" d="M48.1,7.9H50l0.1,0.5c0.2-0.1,0.4-0.2,0.6-0.3C50.9,8,51.1,8,51.4,7.9C51.9,7.8,52.5,7.8,53,8
		c0.3,0.1,0.6,0.3,0.9,0.6c0.1,0.1,0.2,0.2,0.3,0.3l0.1,0.2c0,0,0,0.1,0.1,0.1c0.1,0.3,0.2,0.5,0.2,0.8c0,0.3,0.1,0.8,0.1,1.3v0.7
		c0,1.1-0.1,1.5-0.3,1.8c-0.3,0.7-1.1,1-2.4,1c-0.2,0-0.4,0-0.6,0l-0.5-0.1c-0.2,0-0.3-0.1-0.4-0.1v3.8l-2.2-0.2V7.9z M50.4,12.7
		c0.4,0.2,0.7,0.3,1,0.3l0.3,0c0.4-0.1,0.6-0.4,0.6-0.8v-1.4c0-0.2,0-0.4-0.1-0.4c-0.1-0.4-0.5-0.6-1.1-0.5l-0.2,0L50.5,10l-0.2,0.1
		V12.7z"/>
	<path id="XMLID_14_" class="st0" d="M71.5,11v1.3h-4.1v0.2c0,0.5,0.2,0.8,0.5,0.9c0.2,0.1,0.5,0.1,0.8,0.1h0.2c0.8,0,1.3,0,2.1-0.2
		h0l0.3,1.8c0,0-0.4,0.1-1.2,0.2c-0.5,0.1-1,0.1-1.7,0.1c-1.6,0-2.7-0.5-3.1-1.6c-0.2-0.4-0.3-0.9-0.3-1.3v-1.8
		c0-1.3,0.5-2.1,1.6-2.6c0.5-0.2,1-0.2,1.5-0.2c1.5,0,2.5,0.5,3,1.5C71.4,9.7,71.5,10.3,71.5,11z M69.2,10.7c0-0.5-0.1-0.8-0.3-0.9
		c-0.2-0.1-0.4-0.2-0.6-0.2c-0.6,0-0.9,0.3-0.9,0.9v0.3h1.8V10.7z"/>
	<path id="XMLID_7_" class="st0" d="M93.5,11v1.3h-4.1v0.2c0,0.5,0.2,0.8,0.5,0.9c0.2,0.1,0.5,0.1,0.8,0.1h0.2c0.8,0,1.3,0,2.1-0.2
		h0l0.3,1.8c0,0-0.4,0.1-1.2,0.2c-0.5,0.1-1,0.1-1.7,0.1c-1.6,0-2.7-0.5-3.1-1.6c-0.2-0.4-0.3-0.9-0.3-1.3v-1.8
		c0-1.3,0.5-2.1,1.6-2.6c0.5-0.2,1-0.2,1.5-0.2c1.5,0,2.5,0.5,3,1.5C93.4,9.7,93.5,10.3,93.5,11z M91.3,10.7c0-0.5-0.1-0.8-0.3-0.9
		c-0.2-0.1-0.4-0.2-0.6-0.2c-0.6,0-0.9,0.3-0.9,0.9v0.3h1.8V10.7z"/>
	<path id="XMLID_224_" class="st0" d="M77.7,8.2L77.6,10c-0.4,0-0.5-0.1-0.9,0l-0.3,0c-0.3,0.1-0.8,0.1-1.4,0.4v4.9h-2.2V8h1.9
		c0,0,0.1,0.4,0.1,0.5l0.5-0.2c0.3-0.1,0.7-0.2,1.1-0.2C77.2,8.1,77.5,8.1,77.7,8.2z"/>
	<path id="XMLID_89_" class="st0" d="M99.8,8.2L99.7,10c-0.4,0-0.5-0.1-0.9,0l-0.3,0c-0.3,0.1-0.8,0.1-1.4,0.4v4.9H95V8h1.9
		c0,0,0.1,0.4,0.1,0.5l0.5-0.2c0.3-0.1,0.7-0.2,1.1-0.2C99.4,8.1,99.6,8.1,99.8,8.2z"/>
	<path id="XMLID_228_" class="st0" d="M27.8,12.2V8l2.3,0.2v4.5c0,0.5,0.2,0.7,0.7,0.8c0.2,0,0.3,0,0.4,0c0.4,0,0.6,0,1-0.2l0-5.3
		l2.3,0.2v7.1h-2c0,0-0.1-0.2-0.1-0.3c0,0-1,0.3-1.2,0.3c-0.3,0.1-0.5,0.1-0.8,0.1c-0.5,0-0.9,0-1.3-0.1c-0.4-0.2-0.7-0.4-1-0.9
		C27.9,13.9,27.8,13.2,27.8,12.2z"/>
</g>
</svg>
