<?xml version="1.0" encoding="utf-8"?>
<!-- Generator: Adobe Illustrator 19.0.0, SVG Export Plug-In . SVG Version: 6.00 Build 0)  -->
<svg version="1.1" id="图层_1" xmlns="http://www.w3.org/2000/svg" xmlns:xlink="http://www.w3.org/1999/xlink" x="0px" y="0px"
	 viewBox="-369 288.3 100 20" style="enable-background:new -369 288.3 100 20;" xml:space="preserve">
<style type="text/css">
	.st0{fill:#0A7BE0;}
	.st1{fill:#C1C1C1;}
</style>
<g>
	<g id="XMLID_466_">
		<polygon id="XMLID_472_" class="st0" points="-355.5,301.7 -360.9,304.8 -360.9,306 -354.4,302.3 		"/>
		<polygon id="XMLID_471_" class="st0" points="-368.1,301.9 -367,301.3 -367,295 -368.1,294.4 		"/>
		<polygon id="XMLID_470_" class="st0" points="-361.4,306 -361.4,304.8 -366.8,301.7 -367.8,302.3 		"/>
		<polygon id="XMLID_469_" class="st0" points="-360.9,290.2 -360.9,291.5 -355.5,294.6 -354.4,294 		"/>
		<polygon id="XMLID_468_" class="st0" points="-366.8,294.6 -361.4,291.5 -361.4,290.2 -367.8,294 		"/>
		<polygon id="XMLID_467_" class="st0" points="-354.2,294.4 -355.2,295 -355.2,301.3 -354.2,301.9 		"/>
	</g>
	<g id="XMLID_32_">
		<path id="XMLID_464_" class="st0" d="M-345.7,301.3c0.4,0,1.2,0,2-0.1v1.8l-1,0.2c-0.4,0.1-0.9,0-1.4,0c-1.9,0-3.1-0.7-3.7-2.1
			c-0.1-0.3-0.2-0.5-0.2-0.9c-0.1-0.4-0.1-0.8-0.1-1.3v-0.6c0-0.6,0-1.1,0.1-1.6c0.1-0.4,0.2-0.7,0.4-1c0.6-1.1,1.8-1.7,3.5-1.7
			c0.6,0,1.5,0,2.4,0.2v1.8c-0.9-0.1-1.7-0.1-2.2-0.1c-0.8,0-1.3,0.1-1.6,0.4c-0.3,0.2-0.4,0.8-0.4,1.8v1.4c0,0.4,0,0.8,0.1,1
			c0.1,0.2,0.1,0.4,0.2,0.5c0.3,0.3,0.8,0.5,1.6,0.5H-345.7z"/>
		<path id="XMLID_461_" class="st0" d="M-332.6,299.2v1.6c0,1.2-0.4,2-1.3,2.4c-0.4,0.2-1,0.3-1.6,0.3c-1.3,0-2.1-0.4-2.5-1.3
			c-0.2-0.4-0.3-0.8-0.3-1.3v-1.9c0-0.5,0.1-1.1,0.2-1.4c0.3-0.5,0.7-0.8,1.4-1c0.4-0.1,0.8-0.2,1.1-0.2h0.2c1.3,0,2.2,0.4,2.6,1.4
			C-332.7,298.3-332.6,298.8-332.6,299.2z M-334.6,299.2c0-0.5-0.1-0.8-0.4-0.9c-0.1,0-0.2-0.1-0.4-0.1h-0.2c-0.3,0-0.6,0.1-0.7,0.4
			c0,0.1-0.1,0.3-0.1,0.4v2.1c0,0.6,0.3,0.8,0.9,0.8h0.1c0.5,0,0.7-0.2,0.8-0.6l0-0.2c0,0,0,0,0,0L-334.6,299.2z"/>
		<path id="XMLID_458_" class="st0" d="M-286.3,299.2v1.6c0,1.2-0.4,2-1.3,2.4c-0.4,0.2-1,0.3-1.6,0.3c-1.3,0-2.1-0.4-2.5-1.3
			c-0.2-0.4-0.3-0.8-0.3-1.3v-1.9c0-0.5,0.1-1.1,0.2-1.4c0.3-0.5,0.7-0.8,1.4-1c0.4-0.1,0.8-0.2,1.1-0.2h0.2c1.3,0,2.2,0.4,2.6,1.4
			C-286.3,298.3-286.3,298.8-286.3,299.2z M-288.2,299.2c0-0.5-0.1-0.8-0.4-0.9c-0.1,0-0.2-0.1-0.4-0.1h-0.2c-0.3,0-0.6,0.1-0.7,0.4
			c0,0.1-0.1,0.3-0.1,0.4v2.1c0,0.6,0.3,0.8,0.9,0.8h0.1c0.5,0,0.7-0.2,0.8-0.6l0-0.2c0,0,0,0,0,0L-288.2,299.2z"/>
		<path id="XMLID_443_" class="st0" d="M-331.5,300.3v-3.7l2,0.1v3.9c0,0.4,0.2,0.6,0.6,0.7c0.2,0,0.3,0,0.4,0c0.3,0,0.5,0,0.8-0.1
			l0-4.6l2,0.2v6.2h-1.8c0,0,0-0.2-0.1-0.3c0,0-0.9,0.2-1.1,0.3c-0.2,0-0.4,0.1-0.7,0.1c-0.5,0-0.8,0-1.1-0.1
			c-0.4-0.1-0.6-0.4-0.9-0.8C-331.4,301.9-331.5,301.2-331.5,300.3z"/>
		<path id="XMLID_441_" class="st0" d="M-315,297.7h2.3l-0.1,1.6h-2.2v1.9h3.2v1.8h-5.5v-8.7h5.5v1.7h-3.2V297.7z"/>
		<path id="XMLID_439_" class="st0" d="M-306.8,302.8l-0.9-2.1l-0.9,2.1l-2.2,0.2l1.6-3.3l-1.5-3l2.1,0.2l1,2l0.8-1.9l2.2-0.2
			l-1.4,3l1.5,3.3L-306.8,302.8z"/>
		<path id="XMLID_436_" class="st0" d="M-303.5,296.6h1.6l0.1,0.4c0.2-0.1,0.4-0.2,0.5-0.2c0.2-0.1,0.4-0.1,0.6-0.2
			c0.5-0.1,1-0.1,1.5,0.1c0.3,0.1,0.6,0.3,0.8,0.5c0.1,0.1,0.2,0.2,0.2,0.3l0.1,0.1c0,0,0,0.1,0.1,0.1c0.1,0.2,0.1,0.5,0.2,0.7
			c0,0.3,0.1,0.7,0.1,1.2v0.6c0,0.9-0.1,1.3-0.2,1.6c-0.3,0.6-0.9,0.9-2.1,0.9c-0.2,0-0.4,0-0.6,0l-0.4-0.1c-0.2,0-0.3-0.1-0.4-0.1
			v3.4l-2-0.2V296.6z M-301.5,300.9c0.3,0.2,0.6,0.3,0.9,0.3l0.3,0c0.4-0.1,0.5-0.3,0.5-0.7v-1.2c0-0.2,0-0.3,0-0.4
			c-0.1-0.4-0.4-0.5-1-0.5l-0.2,0l-0.4,0.1l-0.2,0.1V300.9z"/>
		<path id="XMLID_433_" class="st0" d="M-318.9,303.2h-1.6c0,0-0.1-0.3-0.1-0.4l0-0.1c-0.2,0.1-0.4,0.2-0.5,0.2
			c-0.2,0.1-0.4,0.1-0.6,0.2c-0.5,0.1-1,0.1-1.5-0.1c-0.3-0.1-0.6-0.3-0.8-0.5c-0.1-0.1-0.2-0.2-0.2-0.3l-0.1-0.1c0,0,0-0.1-0.1-0.1
			c-0.1-0.2-0.1-0.5-0.2-0.7c0-0.3-0.1-0.7-0.1-1.2V300c0-0.9,0.1-1.6,0.2-1.8c0.3-0.6,0.9-0.9,2.1-0.9c0.2,0,0.4,0,0.6,0l0.4,0.1
			c0.2,0,0.3,0.1,0.4,0.1v-3.3l2-0.2V303.2z M-320.9,299.2c-0.3-0.2-0.6-0.3-0.9-0.3l-0.3,0c-0.4,0.1-0.5,0.3-0.5,0.7v1
			c0,0.2,0,0.3,0,0.4c0.1,0.4,0.4,0.5,1,0.5l0.2,0l0.4-0.1l0.2-0.1V299.2z"/>
		<path id="XMLID_431_" class="st0" d="M-294.5,300.7c0,0.4,0.1,0.7,0.4,0.8c0.1,0,0.6,0.1,0.8,0.1c0,0,0.1,0,0.1,0h0.3v1.6
			c-0.1,0-0.3,0-0.5,0c-1.4,0-2.6-0.1-3-1.1c-0.1-0.3-0.1-0.9-0.2-1.2c0-0.1,0-0.2,0-0.3V294l2-0.2V300.7z"/>
		<path id="XMLID_426_" class="st0" d="M-340.7,300.7c0,0.4,0.1,0.7,0.4,0.8c0.1,0,0.6,0.1,0.8,0.1c0,0,0.1,0,0.1,0h0.3v1.6
			c-0.1,0-0.3,0-0.5,0c-1.4,0-2.6-0.1-3-1.1c-0.1-0.3-0.1-0.9-0.2-1.2c0-0.1,0-0.2,0-0.3v-6.8l2-0.1V300.7z"/>
		<path id="XMLID_424_" class="st0" d="M-281.1,296.8l-0.1,1.6c-0.3,0-0.4-0.1-0.8,0l-0.3,0c-0.2,0.1-0.7,0.1-1.2,0.3v4.3h-1.9v-6.4
			h1.7c0,0,0.1,0.3,0.1,0.5l0.5-0.2c0.3-0.1,0.6-0.2,1-0.2C-281.5,296.7-281.3,296.7-281.1,296.8z"/>
		<path id="XMLID_422_" class="st0" d="M-269.3,296.8l-0.1,1.6c-0.3,0-0.4-0.1-0.8,0l-0.3,0c-0.2,0.1-0.7,0.1-1.2,0.3v4.3h-1.9v-6.4
			h1.7c0,0,0.1,0.3,0.1,0.5l0.5-0.2c0.3-0.1,0.6-0.2,1-0.2C-269.7,296.7-269.5,296.7-269.3,296.8z"/>
		<path id="XMLID_419_" class="st0" d="M-274.6,299.3v1.1h-3.6v0.2c0,0.4,0.1,0.7,0.4,0.8c0.2,0.1,0.4,0.1,0.7,0.1h0.2
			c0.7,0,1.1,0,1.9-0.2h0l0.3,1.5c0,0-0.3,0.1-1,0.2c-0.4,0-0.9,0.1-1.4,0.1c-1.4,0-2.3-0.5-2.7-1.4c-0.2-0.4-0.2-0.8-0.2-1.2V299
			c0-1.1,0.5-1.9,1.4-2.2c0.4-0.1,0.9-0.2,1.3-0.2c1.3,0,2.2,0.4,2.6,1.3C-274.6,298.2-274.6,298.7-274.6,299.3z M-276.5,299
			c0-0.4-0.1-0.7-0.3-0.8c-0.1-0.1-0.3-0.1-0.5-0.1c-0.5,0-0.8,0.2-0.8,0.7v0.3h1.6V299z"/>
	</g>
	<path id="XMLID_415_" class="st0" d="M-361.1,289.3l7.7,4.4v8.9l-7.7,4.4l-7.7-4.4v-8.9L-361.1,289.3 M-361.1,289l-7.9,4.5v9.1
		l7.9,4.5l7.9-4.5v-9.1L-361.1,289L-361.1,289z"/>
	<path id="XMLID_135_" class="st0" d="M-358.1,296.2h-0.3c0,0,0.1,0.2,0.2,0.5c0.1,0.3,0.1,0.5,0.1,0.5s0,0,0.1,0
		c0.7,0,1.3,0.7,1.3,1.4c0,0.7-0.7,1.3-1.4,1.3h-1.1c0.5-0.6,0.8-1.3,0.8-2.1c0-1.7-1.4-3.1-3.1-3.1c-1.3,0-2.5,0.8-2.9,2
		c-1.1,0.1-2,1-2,2.1c0,1.1,0.9,2.1,2.1,2.1h2.1c0,0,0,0,0,0h4c1.3,0,2.3-1,2.4-2.2C-355.8,297.3-356.8,296.2-358.1,296.2z
		 M-365.4,298.7c0-0.6,0.5-1.1,1.1-1.1h0.6l0.1-0.4c0.2-1,1.1-1.7,2.1-1.7c1.2,0,2.1,1,2.1,2.1s-1,2.1-2.1,2.1h-2.8
		C-364.9,299.8-365.4,299.3-365.4,298.7z"/>
	<g id="XMLID_133_">
		<path id="XMLID_138_" class="st1" d="M-359.1,300.8L-359.1,300.8c-1.5,1.3-3.2,1.4-4.2,0.9c0,0,0.1,0.1,0.1,0.1
			C-362.3,302.7-360.1,302.2-359.1,300.8z"/>
		<path id="XMLID_33_" class="st1" d="M-356.9,295.2c0-0.1-0.1-0.1-0.2-0.1c0.3,0.4,0.2,1,0.1,1.4c0,0,0,0,0,0l0,0c0,0,0,0,0,0
			C-356.6,295.8-356.6,295.5-356.9,295.2z"/>
		<path id="XMLID_140_" class="st1" d="M-362.1,296.3c-1.8,1.7-2.3,4.2-1.5,5.1c0.1,0.1,0.2,0.2,0.4,0.3c-0.8-1.1,0-3.2,1.7-4.8
			c1.6-1.5,3.7-2.3,4.5-1.9c0,0,0,0,0-0.1C-357.9,294.1-360.3,294.6-362.1,296.3z"/>
	</g>
</g>
</svg>
