<?xml version="1.0" encoding="utf-8"?>
<!-- Generator: Adobe Illustrator 19.0.0, SVG Export Plug-In . SVG Version: 6.00 Build 0)  -->
<svg version="1.1" id="图层_1" xmlns="http://www.w3.org/2000/svg" xmlns:xlink="http://www.w3.org/1999/xlink" x="0px" y="0px"
	 viewBox="0 0 100 20" style="enable-background:new 0 0 100 20;" xml:space="preserve">
<style type="text/css">
	.st0{fill:#8B489B;}
	.st1{fill:#783887;}
	.st2{fill:#622870;}
	.st3{fill:#FFFFFF;}
</style>
<g id="XMLID_58_">
	<polygon id="XMLID_795_" class="st0" points="1.3,5.9 8.2,1.9 15,5.9 8.2,9.8 	"/>
	<g id="XMLID_72_">
		<g id="XMLID_803_">
			<path id="XMLID_829_" class="st1" d="M29.3,15.2l-0.6-6.4l-1.8,6.4h-2.1l-1.7-6.4l-0.7,6.4l-2.9,0l1.4-9.4h3.7l1.3,4.5l1.3-4.5
				h3.6l1.4,9.4H29.3z"/>
			<path id="XMLID_826_" class="st1" d="M39.1,11.3v1.2h-3.8l0,0.2c0,0.5,0.2,0.7,0.5,0.8c0.2,0.1,0.5,0.1,0.7,0.1h0.2
				c0.7,0,1.8-0.2,2.6-0.3h0l-0.3,1.7c0,0-0.4,0.2-1.1,0.3c-0.4,0-0.9,0.1-1.5,0.1c-1.5,0-2.4-0.5-2.9-1.5c-0.2-0.4-0.3-0.8-0.3-1.2
				V11c0-1.2,0.6-2,1.6-2.4c0.4-0.1,0.9-0.2,1.4-0.2c1.4,0,2.3,0.5,2.7,1.4C39,10.1,39.1,10.6,39.1,11.3z M37.1,11
				c0-0.5-0.1-0.8-0.3-0.9C36.6,10,36.4,10,36.2,10c-0.6,0-0.8,0.3-0.8,0.8l0,0.3h1.8V11z"/>
			<path id="XMLID_823_" class="st1" d="M51.8,11.3v1.2h-3.8l0,0.2c0,0.5,0.2,0.7,0.5,0.8c0.2,0.1,0.5,0.1,0.7,0.1h0.2
				c0.7,0,1.8-0.2,2.6-0.3h0l-0.3,1.7c0,0-0.4,0.2-1.1,0.3c-0.4,0-0.9,0.1-1.5,0.1c-1.5,0-2.4-0.5-2.9-1.5C46.1,13.4,46,13,46,12.6
				V11c0-1.2,0.6-2,1.6-2.4c0.4-0.1,0.9-0.2,1.4-0.2c1.4,0,2.3,0.5,2.7,1.4C51.8,10.1,51.8,10.6,51.8,11.3z M49.9,11
				c0-0.5-0.1-0.8-0.3-0.9C49.4,10,49.1,10,48.9,10c-0.6,0-0.8,0.3-0.8,0.8l0,0.3h1.8V11z"/>
			<path id="XMLID_820_" class="st1" d="M87.1,11.3v1.2h-3.8l0,0.2c0,0.5,0.2,0.7,0.5,0.8c0.2,0.1,0.5,0.1,0.7,0.1h0.2
				c0.7,0,1.8-0.2,2.6-0.3h0l-0.3,1.7c0,0-0.4,0.2-1.1,0.3c-0.4,0-0.9,0.1-1.5,0.1c-1.5,0-2.4-0.5-2.9-1.5c-0.2-0.4-0.3-0.8-0.3-1.2
				V11c0-1.2,0.6-2,1.6-2.4c0.4-0.1,0.9-0.2,1.4-0.2c1.4,0,2.3,0.5,2.7,1.4C87,10.1,87.1,10.6,87.1,11.3z M85.1,11
				c0-0.5-0.1-0.8-0.3-0.9C84.6,10,84.4,10,84.2,10c-0.6,0-0.8,0.3-0.8,0.8l0,0.3h1.8V11z"/>
			<path id="XMLID_817_" class="st1" d="M99.8,11.3v1.2h-3.8l0,0.2c0,0.5,0.2,0.7,0.5,0.8c0.2,0.1,0.5,0.1,0.7,0.1h0.2
				c0.7,0,1.8-0.2,2.6-0.3h0l-0.3,1.7c0,0-0.4,0.2-1.1,0.3c-0.4,0-0.9,0.1-1.5,0.1c-1.5,0-2.4-0.5-2.9-1.5c-0.2-0.4-0.3-0.8-0.3-1.2
				V11c0-1.2,0.6-2,1.6-2.4c0.4-0.1,0.9-0.2,1.4-0.2c1.4,0,2.3,0.5,2.7,1.4C99.8,10.1,99.8,10.6,99.8,11.3z M97.9,11
				c0-0.5-0.1-0.8-0.3-0.9C97.4,10,97.1,10,96.9,10c-0.6,0-0.8,0.3-0.8,0.8l0,0.3h1.8V11z"/>
			<path id="XMLID_815_" class="st1" d="M45.1,15.2h-1.2c-0.2,0-0.4,0-0.5,0c-0.4,0-0.7-0.1-1-0.2c-0.3-0.2-0.6-0.4-0.7-0.7
				c-0.2-0.4-0.3-0.8-0.3-1.4l0-2.6h-1V8.5h1V7.2l1,0L43.4,7v1.5H45l-0.2,1.7h-1.4v2.5c0,0.1,0,0.1,0,0.1c0,0.1,0,0.2,0,0.3
				c0.1,0.2,0.2,0.3,0.4,0.3c0.2,0.1,1.1,0.1,1.1,0.1L45.1,15.2z"/>
			<path id="XMLID_813_" class="st1" d="M57.9,8.5l0,1.6c-0.2,0-0.7,0-1.2,0.1c-0.5,0.1-1,0.3-1.2,0.4v4.5h-2V8.5h1.9
				c0,0,0,0.4,0,0.5l0.5-0.2c0.3-0.1,0.6-0.2,1-0.2C57.3,8.5,57.6,8.5,57.9,8.5z"/>
			<path id="XMLID_811_" class="st1" d="M93.3,8.5l0,1.6c-0.2,0-0.7,0-1.2,0.1c-0.5,0.1-1,0.3-1.2,0.4v4.5h-2V8.5h1.9
				c0,0,0,0.4,0,0.5l0.5-0.2c0.3-0.1,0.6-0.2,1-0.2C92.7,8.5,93,8.5,93.3,8.5z"/>
			<path id="XMLID_809_" class="st1" d="M61.9,15.5c-0.5,0-1,0-1.6-0.1c-0.2,0-0.4-0.1-0.7-0.1l-0.9-0.1l0-2.3l1.4,0.2
				c0,0,0.6,0.1,0.8,0.1c0.3,0,0.6,0,0.8,0c0.9,0,1.4-0.2,1.5-0.6c0.1-0.2,0.1-0.3,0-0.5c-0.1-0.2-0.3-0.3-0.5-0.5
				c-0.1-0.1-0.3-0.1-0.4-0.2l-0.5-0.2c-0.2-0.1-0.4-0.1-0.6-0.2c-0.2-0.1-0.5-0.2-0.6-0.2c-0.5-0.2-0.9-0.4-1.1-0.7
				c-0.3-0.3-0.4-0.6-0.5-1c-0.1-0.3-0.1-0.6,0-1c0.1-1,0.6-1.8,1.3-2.1c0.3-0.2,0.6-0.3,1-0.3c0.2,0,0.3,0,0.5-0.1l0.5,0h0.4
				c0.4,0,0.9,0,1.3,0.1l0.6,0.1L65.3,6l0,2c-0.3-0.1-0.6-0.1-1-0.2c-0.5-0.1-1-0.1-1.4-0.1c-0.9,0-1.3,0.2-1.4,0.6
				c-0.1,0.2-0.1,0.4,0,0.5c0,0.2,0,0.3,0.4,0.5c0.1,0.1,0.3,0.1,0.5,0.2l1.2,0.4c0.2,0.1,0.4,0.1,0.6,0.2c0.4,0.2,0.8,0.4,1,0.6
				c0.3,0.3,0.4,0.6,0.5,1c0.1,0.3,0.1,0.6,0,0.9c-0.1,1-0.6,2-1.4,2.4c-0.3,0.2-0.6,0.3-1,0.3c-0.2,0-0.3,0-0.5,0.1l-0.5,0H61.9z"
				/>
			<path id="XMLID_806_" class="st1" d="M67,8.5h1.9l-0.1,0.4c0.2-0.1,0.4-0.2,0.6-0.3c0.2-0.1,0.4-0.1,0.7-0.2
				c0.5-0.1,1-0.1,1.5,0.1c0.3,0.1,0.6,0.3,0.8,0.5c0.1,0.1,0.2,0.2,0.2,0.3l0.1,0.1c0,0,0,0.1,0.1,0.1c0.1,0.2,0.2,0.5,0.2,0.8
				c0,0.3,0.1,0.7,0.1,1.2v0.4c0,1-0.1,1.5-0.3,1.9c-0.3,0.6-0.9,0.9-2.1,1c-0.2,0-0.4,0-0.7,0l-0.5,0c-0.2,0-0.3,0-0.4,0v2.9L67,18
				V8.5z M69.1,13.2c0.4,0.1,0.6,0.1,1,0l0.3,0c0.4-0.1,0.5-0.3,0.5-0.8v-1.3c0-0.2,0-0.3,0-0.4c-0.1-0.4-0.5-0.6-1-0.5l-0.2,0
				l-0.4,0.1l-0.2,0.1V13.2z"/>
			<path id="XMLID_804_" class="st1" d="M80.3,11.6v3.7h-2.1v-4c0-0.3-0.1-0.6-0.4-0.8c-0.2-0.1-0.6-0.1-0.7-0.1
				c-0.3,0-0.6,0.2-0.7,0.3v4.5h-2.1V5.5l2.1,0V9c0.3-0.1,0.5-0.2,0.8-0.2c0.2,0,0.5-0.1,0.7-0.1c1.2,0,1.8,0.3,2.1,1
				C80.1,9.8,80.3,10.5,80.3,11.6z"/>
		</g>
		<g id="XMLID_799_">
			<path id="XMLID_800_" class="st1" d="M8.2,0.8l7.9,4.6v9.2l-7.9,4.6l-7.9-4.6V5.4L8.2,0.8 M8.2,0.6L0,5.3v9.4l8.2,4.7l8.2-4.7
				V5.3L8.2,0.6L8.2,0.6z"/>
		</g>
		<g id="XMLID_796_">
			<polygon id="XMLID_95_" class="st2" points="8.3,10.1 15.2,6.1 15.2,14 8.3,18 			"/>
		</g>
		<g id="XMLID_792_">
			<polygon id="XMLID_96_" class="st1" points="1.1,14 1.1,6.1 8,10.1 8,18 			"/>
		</g>
		<g id="XMLID_789_">
			<path id="XMLID_790_" class="st3" d="M5.9,15.1l0-2.8l-1,2.2L4,14l-0.5-3.1L3,13.4l-1.2-0.7l1-3.6L4.3,10l0.3,2.2l0.7-1.5
				l1.5,0.9L7,15.8L5.9,15.1z"/>
		</g>
		<g id="XMLID_786_">
			<path id="XMLID_787_" class="st3" d="M11.8,14.9c-0.2,0.1-0.5,0.2-0.8,0.3c-0.1,0-0.2,0.1-0.3,0.1l-0.5,0.1l0-1.2l0.7-0.2
				c0,0,0.3-0.1,0.4-0.1c0.2,0,0.3-0.1,0.4-0.1c0.4-0.2,0.7-0.4,0.8-0.6c0-0.1,0-0.2,0-0.2c0-0.1-0.1-0.1-0.3-0.1
				c-0.1,0-0.1,0-0.2,0l-0.3,0c-0.1,0-0.2,0-0.3,0c-0.1,0-0.2,0-0.3,0c-0.2,0-0.4,0-0.6-0.1c-0.1-0.1-0.2-0.2-0.3-0.4
				c0-0.1,0-0.3,0-0.5c0-0.5,0.3-1,0.6-1.3c0.1-0.1,0.3-0.3,0.5-0.4c0.1,0,0.2-0.1,0.3-0.1l0.3-0.1l0.2-0.1c0.2-0.1,0.4-0.2,0.7-0.2
				L13,9.6l0.3-0.1l0,1c-0.1,0-0.3,0.1-0.5,0.1c-0.3,0.1-0.5,0.1-0.7,0.2c-0.5,0.2-0.6,0.4-0.7,0.6c0,0.1,0,0.2,0,0.3
				c0,0.1,0,0.1,0.2,0.1c0.1,0,0.1,0,0.2,0l0.6-0.1c0.1,0,0.2,0,0.3,0c0.2,0,0.4,0,0.5,0.1c0.1,0.1,0.2,0.2,0.3,0.4
				c0,0.1,0,0.3,0,0.5c0,0.5-0.3,1.1-0.7,1.4c-0.1,0.1-0.3,0.3-0.5,0.4c-0.1,0-0.2,0.1-0.3,0.1L12,14.8L11.8,14.9z"/>
		</g>
	</g>
</g>
</svg>
