<?xml version="1.0" encoding="utf-8"?>
<!-- Generator: Adobe Illustrator 19.0.0, SVG Export Plug-In . SVG Version: 6.00 Build 0)  -->
<svg version="1.1" id="图层_1" xmlns="http://www.w3.org/2000/svg" xmlns:xlink="http://www.w3.org/1999/xlink" x="0px" y="0px"
	 viewBox="0 0 100 20" style="enable-background:new 0 0 100 20;" xml:space="preserve">
<style type="text/css">
	.st0{fill:#FC6554;}
	.st1{fill:#D11313;}
	.st2{fill:#EF3A35;}
</style>
<g id="XMLID_132_">
	<g id="XMLID_219_">
		<path id="XMLID_216_" class="st0" d="M8.1,0.8l7.8,4.5v9l-7.8,4.5l-7.8-4.5v-9L8.1,0.8 M8.1,0.6l-8,4.6v9.3l8,4.6l8-4.6V5.2
			L8.1,0.6L8.1,0.6z"/>
		<g id="XMLID_213_">
			<polygon id="XMLID_215_" class="st1" points="12.9,12.8 8.1,15.5 8.1,18 15,14 			"/>
			<polygon id="XMLID_214_" class="st1" points="13.1,7.1 13.1,12.5 15.2,13.7 15.2,5.9 			"/>
		</g>
		<g id="XMLID_210_">
			<polygon id="XMLID_212_" class="st0" points="3.3,6.9 8.1,4.1 12.9,6.9 15,5.6 8.1,1.6 1.2,5.6 			"/>
			<polygon id="XMLID_211_" class="st0" points="1,5.7 1,5.7 1,5.7 			"/>
		</g>
		<g id="XMLID_200_">
			<g id="XMLID_207_">
				<polygon id="XMLID_150_" class="st1" points="8.1,14.6 12.2,12.2 12.2,7.4 8.1,9.8 				"/>
			</g>
			<g id="XMLID_204_">
				<polygon id="XMLID_148_" class="st0" points="4,7.4 8.1,5.1 12.2,7.4 8.1,9.8 				"/>
			</g>
			<g id="XMLID_201_">
				<polygon id="XMLID_149_" class="st2" points="8.1,14.6 4,12.2 4,7.4 8.1,9.8 				"/>
			</g>
		</g>
		<g id="XMLID_197_">
			<polygon id="XMLID_199_" class="st2" points="1,13.7 3.2,12.5 3.2,7.1 1,5.9 			"/>
			<polygon id="XMLID_198_" class="st2" points="3.3,12.8 1.2,14 8.1,18 8.1,15.5 			"/>
		</g>
	</g>
	<path id="XMLID_42_" class="st0" d="M24.4,14.6c0-0.1-0.1-0.2-0.2-0.4l-0.8-1.3c-0.2-0.3-0.3-0.6-0.5-0.8l-1.3-2v4.5h-2.4V5.2h2.4
		v4.1l2.6-4.1h2.5l-3,4.5c0,0,0,0.1,0.1,0.2l0.3,0.5c0.1,0.2,0.3,0.4,0.5,0.7l2.3,3.5H24.4z"/>
	<path id="XMLID_46_" class="st0" d="M41,10.7v0.7c0,1.1-0.1,1.8-0.2,2c-0.1,0.2-0.2,0.4-0.4,0.6c-0.5,0.5-1.4,0.7-2.6,0.7
		c-0.9,0-1.8-0.1-2.7-0.3V5.2L37,4.8V8c0.3-0.1,0.5-0.2,0.8-0.2c0.2,0,0.5-0.1,0.7-0.1c1.2,0,1.9,0.3,2.2,0.9C40.9,9,41,9.6,41,10.7
		z M38.9,10.3c0-0.4-0.2-0.7-0.6-0.8H38c-0.3,0-0.7,0.1-1,0.3v3.1l0.8,0c0.6,0,0.9-0.2,1-0.6c0-0.1,0-0.2,0-0.4V10.3z"/>
	<path id="XMLID_52_" class="st0" d="M57,9.6v0.6c0,1.1-0.1,1.9-0.3,2.3c-0.3,0.7-0.8,1.3-1.5,1.6c-0.6,0.3-1.4,0.5-2.4,0.5
		c-1,0-1.8-0.2-2.4-0.5c-0.7-0.4-1.2-0.9-1.5-1.6c-0.2-0.5-0.3-1.2-0.3-2.3V9.6c0-1.3,0.2-2.2,0.5-2.7c0.3-0.5,0.7-0.9,1.2-1.2
		c0.6-0.4,1.4-0.5,2.4-0.5c1,0,1.8,0.2,2.4,0.5c0.5,0.3,0.9,0.7,1.2,1.2C56.8,7.4,57,8.3,57,9.6z M52.8,12.8c0.8,0,1.2-0.2,1.4-0.5
		c0.2-0.2,0.3-0.7,0.3-1.6V9.3c0-1-0.1-1.7-0.4-1.8C54,7.2,53.5,7,52.8,7c-0.7,0-1.2,0.2-1.4,0.4C51.1,7.6,51,8.2,51,9.2v1.4
		c0,0.9,0.1,1.5,0.4,1.7C51.5,12.6,52,12.7,52.8,12.8z"/>
	<path id="XMLID_193_" class="st0" d="M82.4,10.5v4.1h-1.7l0-0.1c0,0,0,0,0-0.1c0,0,0-0.1,0-0.1l0-0.2c-0.6,0.3-1.2,0.5-1.8,0.5
		h-0.2c-0.6,0-1.1-0.2-1.5-0.7c-0.2-0.4-0.4-0.8-0.4-1.2v0c0-0.8,0.3-1.3,0.9-1.6c0.2-0.2,0.8-0.2,1.8-0.2h1v-0.2
		c0-0.5-0.1-0.7-0.2-0.8c-0.1-0.1-0.4-0.2-0.8-0.2h-1.9l0.2-1.7h2.1c1.3,0,2.1,0.3,2.4,1C82.3,9.3,82.4,9.8,82.4,10.5z M79.6,12.2
		c-0.4,0-0.6,0-0.7,0.1c-0.1,0.1-0.1,0.2-0.1,0.4c0,0.4,0.2,0.6,0.6,0.6c0.2,0,0.5-0.1,1-0.3v-0.8H79.6z"/>
	<path id="XMLID_203_" class="st0" d="M88,14.6h-1c-0.2,0-0.4,0-0.5,0c-0.4,0-0.7-0.1-1-0.2c-0.3-0.2-0.6-0.4-0.7-0.7
		c-0.2-0.4-0.3-0.8-0.3-1.4l0-2.6h-1V7.9h1V6.2l2.1-0.3v2H88l-0.2,1.7h-1.4v2.5c0,0.1,0,0.1,0,0.1c0,0.1,0,0.2,0,0.3
		c0.1,0.2,0.2,0.3,0.4,0.3c0.2,0.1,0.4,0.1,0.7,0.2c0,0,0.1,0,0.2,0c0,0,0.1,0,0.1,0l0.1,0V14.6z"/>
	<path id="XMLID_208_" class="st0" d="M94.8,10.6v1.2c0,1.3-0.5,2.1-1.4,2.5c-0.5,0.2-1,0.3-1.6,0.3c-1.4,0-2.3-0.4-2.7-1.3
		c-0.2-0.4-0.3-0.8-0.3-1.4v-1.5c0-1.3,0.6-2.1,1.7-2.5c0.4-0.1,0.8-0.2,1.2-0.2h0.2c1.4,0,2.3,0.5,2.7,1.6
		C94.7,9.7,94.8,10.1,94.8,10.6z M92.7,10.5c0-0.5-0.2-0.8-0.5-0.9c-0.1,0-0.2-0.1-0.4-0.1h-0.2c-0.4,0-0.6,0.1-0.8,0.4
		c0,0.1-0.1,0.3-0.1,0.4v1.7c0,0.6,0.3,0.9,0.9,0.9h0.1c0.5,0,0.8-0.2,0.9-0.6l0-0.2c0,0,0,0,0,0L92.7,10.5z"/>
	<path id="XMLID_91_" class="st0" d="M57.8,7.9h1.7l0.1,0.4C59.8,8.2,60,8.1,60.1,8c0.2-0.1,0.4-0.1,0.6-0.2c0.5-0.1,1-0.1,1.5,0.1
		c0.3,0.1,0.6,0.3,0.8,0.5c0.1,0.1,0.2,0.2,0.2,0.3l0.1,0.1c0,0,0,0.1,0.1,0.1c0.1,0.2,0.1,0.5,0.2,0.8c0,0.3,0.1,0.7,0.1,1.2v0.6
		c0,1-0.1,1.4-0.2,1.6c-0.3,0.6-1,0.9-2.1,0.9c-0.2,0-0.4,0-0.6,0l-0.5-0.1c-0.2,0-0.3-0.1-0.4-0.1v3.5l-2-0.2V7.9z M59.8,12.2
		c0.3,0.2,0.7,0.3,0.9,0.3l0.3,0c0.4-0.1,0.6-0.3,0.6-0.7v-1.3c0-0.2,0-0.3,0-0.4c-0.1-0.4-0.4-0.6-1-0.5l-0.2,0L60,9.7l-0.2,0.1
		V12.2z"/>
	<path id="XMLID_40_" class="st0" d="M47.8,10.6v1.2h-3.7V12c0,0.4,0.1,0.7,0.4,0.8c0.2,0.1,0.5,0.1,0.7,0.1h0.2
		c0.7,0,1.2,0,1.9-0.2h0l0.3,1.6c0,0-0.3,0.1-1,0.2c-0.4,0-0.9,0.1-1.5,0.1c-1.5,0-2.4-0.5-2.8-1.5c-0.2-0.4-0.2-0.8-0.2-1.2v-1.6
		c0-1.2,0.5-1.9,1.5-2.3c0.4-0.1,0.9-0.2,1.4-0.2c1.4,0,2.3,0.4,2.7,1.3C47.7,9.5,47.8,10,47.8,10.6z M45.7,10.3
		c0-0.5-0.1-0.7-0.3-0.8c-0.1-0.1-0.3-0.2-0.5-0.2c-0.5,0-0.8,0.3-0.8,0.8v0.3h1.7V10.3z"/>
	<path id="XMLID_49_" class="st0" d="M70.6,10.6v1.2h-3.7V12c0,0.4,0.1,0.7,0.4,0.8c0.2,0.1,0.5,0.1,0.7,0.1h0.2
		c0.7,0,1.2,0,1.9-0.2h0l0.3,1.6c0,0-0.3,0.1-1,0.2c-0.4,0-0.9,0.1-1.5,0.1c-1.5,0-2.4-0.5-2.8-1.5c-0.2-0.4-0.2-0.8-0.2-1.2v-1.6
		c0-1.2,0.5-1.9,1.5-2.3c0.4-0.1,0.9-0.2,1.4-0.2c1.4,0,2.3,0.4,2.7,1.3C70.5,9.5,70.6,10,70.6,10.6z M68.5,10.3
		c0-0.5-0.1-0.7-0.3-0.8c-0.1-0.1-0.3-0.2-0.5-0.2c-0.5,0-0.8,0.3-0.8,0.8v0.3h1.7V10.3z"/>
	<path id="XMLID_86_" class="st0" d="M99.9,8.2l-0.1,1.6c-0.3,0-0.4-0.1-0.8,0l-0.3,0c-0.2,0.1-0.7,0.1-1.3,0.3v4.4h-2V8.1h1.7
		c0,0,0.1,0.3,0.1,0.5l0.5-0.2c0.3-0.1,0.6-0.2,1-0.2C99.5,8.1,99.7,8.2,99.9,8.2z"/>
	<path id="XMLID_94_" class="st0" d="M76,8.2l-0.1,1.6c-0.3,0-0.4-0.1-0.8,0l-0.3,0c-0.2,0.1-0.7,0.1-1.3,0.3v4.4h-2V8.1h1.7
		c0,0,0.1,0.3,0.1,0.5l0.5-0.2c0.3-0.1,0.6-0.2,1-0.2C75.6,8.1,75.8,8.2,76,8.2z"/>
	<path id="XMLID_84_" class="st0" d="M28,11.8V8L30,8.1v4c0,0.4,0.2,0.7,0.6,0.8c0.2,0,0.3,0,0.4,0c0.3,0,0.6,0,0.9-0.2l0-4.8l2,0.2
		v6.4h-1.8c0,0,0-0.2-0.1-0.3c0,0-0.9,0.2-1.1,0.3c-0.2,0-0.5,0.1-0.7,0.1c-0.5,0-0.8,0-1.1-0.1c-0.4-0.1-0.7-0.4-0.9-0.8
		C28.1,13.4,28,12.8,28,11.8z"/>
</g>
</svg>
