<?xml version="1.0" encoding="utf-8"?>
<!-- Generator: Adobe Illustrator 23.0.0, SVG Export Plug-In . SVG Version: 6.00 Build 0)  -->
<svg version="1.1" id="图层_1" xmlns="http://www.w3.org/2000/svg" xmlns:xlink="http://www.w3.org/1999/xlink" x="0px" y="0px"
	 viewBox="0 0 100 20" style="enable-background:new 0 0 100 20;" xml:space="preserve">
<style type="text/css">
	.st0{fill:#0A7BE0;}
	.st1{fill-rule:evenodd;clip-rule:evenodd;fill:#0A7BE0;}
	.st2{fill:#53BAF9;}
	.st3{fill:#2DAAF7;}
</style>
<g>
	<path id="XMLID_997_" class="st0" d="M22.8,1.4l7.5,4.3v8.7l-7.5,4.3l-7.5-4.3V5.7L22.8,1.4 M22.8,1.2l-7.7,4.5v8.9l7.7,4.5
		l7.7-4.5V5.6L22.8,1.2L22.8,1.2z"/>
	<g id="XMLID_963_">
		<path id="XMLID_995_" class="st0" d="M62.6,9.2H65l-0.3,1.7h-2.1v2h2.9l0.1,1.8h-5.4V5.4h5.4l-0.1,1.8h-2.9V9.2z"/>
		<path id="XMLID_992_" class="st0" d="M47.6,10.6v4.1h-1.8l0-0.4c-0.6,0.3-1.2,0.5-1.8,0.5h-0.2c-0.6,0-1.1-0.2-1.5-0.7
			c-0.2-0.4-0.4-0.8-0.4-1.2v0c0-0.8,0.3-1.3,0.8-1.6c0.2-0.2,0.8-0.2,1.8-0.2h1v-0.2c0-0.5-0.1-0.7-0.2-0.8
			c-0.1-0.1-0.4-0.2-0.8-0.2h-1.9l0-1.6L44.9,8c1.3,0,2.1,0.3,2.4,1C47.5,9.4,47.6,9.9,47.6,10.6z M44.1,12.3
			c-0.1,0.1-0.1,0.3-0.1,0.5c0,0.4,0.2,0.5,0.6,0.5c0.2,0,0.5-0.1,0.9-0.3v-0.9C45.5,12.1,44.3,12,44.1,12.3z"/>
		<path id="XMLID_989_" class="st0" d="M59.5,10.6v4.1h-1.8l0-0.4c-0.6,0.3-1.2,0.5-1.8,0.5h-0.2c-0.6,0-1.1-0.2-1.5-0.7
			c-0.2-0.4-0.4-0.8-0.4-1.2v0c0-0.8,0.3-1.3,0.8-1.6c0.2-0.2,0.8-0.2,1.8-0.2h1v-0.2c0-0.5-0.1-0.7-0.2-0.8
			c-0.1-0.1-0.4-0.2-0.8-0.2h-1.9l0-1.6L56.8,8c1.3,0,2.1,0.3,2.4,1C59.4,9.4,59.5,9.9,59.5,10.6z M56,12.3
			c-0.1,0.1-0.1,0.3-0.1,0.5c0,0.4,0.2,0.5,0.6,0.5c0.2,0,0.5-0.1,0.9-0.3v-0.9C57.4,12.1,56.3,12,56,12.3z"/>
		<path id="XMLID_986_" class="st0" d="M72,10.6v4.1h-1.8l0-0.4c-0.6,0.3-1.2,0.5-1.8,0.5h-0.2c-0.6,0-1.1-0.2-1.5-0.7
			c-0.2-0.4-0.4-0.8-0.4-1.2v0c0-0.8,0.3-1.3,0.8-1.6c0.2-0.2,0.8-0.2,1.8-0.2h1v-0.2c0-0.5-0.1-0.7-0.2-0.8
			c-0.1-0.1-0.4-0.2-0.8-0.2H67l0-1.6L69.2,8c1.3,0,2.1,0.3,2.4,1C71.9,9.4,72,9.9,72,10.6z M68.5,12.3c-0.1,0.1-0.1,0.3-0.1,0.5
			c0,0.4,0.2,0.5,0.6,0.5c0.2,0,0.5-0.1,0.9-0.3v-0.9C69.9,12.1,68.7,12,68.5,12.3z"/>
		<g id="XMLID_983_">
			<path id="XMLID_984_" class="st0" d="M52.9,14.7h-1c-0.2,0-0.4,0-0.5,0c-0.4,0-0.7-0.1-1-0.2c-0.3-0.1-0.5-0.4-0.7-0.7
				c-0.2-0.3-0.3-0.8-0.3-1.4l0-2.6h-1V8.1h1V5.9l2,0.4v1.7H53l-0.2,1.7h-1.3v2.5c0,0.1,0,0.1,0,0.1c0,0.1,0,0.2,0,0.3
				c0.1,0.2,0.2,0.3,0.4,0.3c0.2,0.1,0.4,0.1,0.6,0.2c0,0,0.1,0,0.2,0c0,0,0.1,0,0.1,0l0.1,0V14.7z"/>
		</g>
		<path id="XMLID_980_" class="st0" d="M84.8,10.8V12H81l0,0.2c0,0.4,0.2,0.7,0.5,0.8c0.2,0.1,0.5,0.1,0.7,0.1h0.2
			c0.7,0,1.8-0.2,2.6-0.3h0l-0.3,1.7c0,0-0.4,0.2-1.1,0.3c-0.4,0-0.9,0.1-1.5,0.1c-1.5,0-2.4-0.5-2.8-1.5c-0.2-0.4-0.3-0.8-0.3-1.2
			v-1.6c0-1.2,0.6-1.9,1.5-2.3C80.9,8,81.4,8,81.9,8c1.4,0,2.3,0.4,2.7,1.3C84.7,9.6,84.8,10.1,84.8,10.8z M82.8,10.5
			c0-0.5-0.1-0.8-0.3-0.9c-0.1-0.1-0.4-0.1-0.6-0.1c-0.5,0-0.8,0.3-0.8,0.8l0,0.3h1.8V10.5z"/>
		<g id="XMLID_966_">
			<g>
				<path class="st1" d="M37,5.3h-3.6v9.4H37c2.3,0,4.1-1.6,4.1-3.5V8.7C41.2,6.8,39.3,5.3,37,5.3z M38.9,11.3
					c0,0.8-0.8,1.5-1.8,1.5h-1.2V7.1H37c1,0,1.8,0.7,1.8,1.5V11.3z"/>
			</g>
		</g>
		<path id="XMLID_964_" class="st0" d="M75.3,14.9c-0.4,0-0.8,0-1.3-0.1c-0.2,0-0.4,0-0.5-0.1L73,14.7l-0.2-1.8l0.5,0.2l0.6,0.1
			c0.2,0,0.4,0.1,0.6,0.1c0.2,0,0.5,0,0.6,0c0.7,0,1.1,0,1.2-0.3c0.1-0.1,0.1-0.4,0-0.6c-0.1-0.1-0.2-0.2-0.4-0.3
			c-0.1,0-0.2-0.1-0.4-0.1l-0.4-0.1c-0.2,0-0.3-0.1-0.5-0.1c-0.2-0.1-0.4-0.1-0.5-0.2c-0.4-0.1-0.7-0.3-0.9-0.5
			c-0.2-0.2-0.3-0.4-0.4-0.7c0-0.2,0-0.4,0-0.7c0.1-0.7,0.4-1.2,1.1-1.5c0.2-0.1,0.5-0.2,0.8-0.2c0.1,0,0.3,0,0.4,0l0.4,0h0.3
			c0.3,0,0.7,0,1.1,0.1l0.5,0L77.8,8l0.2,1.6c-0.2-0.1-0.5-0.1-0.8-0.1c-0.4-0.1-0.8,0-1.1,0c-0.7,0-1.2,0-1.3,0.3
			c0,0.1,0,0.2,0,0.4c0.1,0.1,0.2,0.2,0.5,0.3c0.1,0,0.2,0.1,0.4,0.1l1,0.3c0.2,0.1,0.3,0.1,0.5,0.2c0.4,0.1,0.6,0.3,0.8,0.5
			c0.2,0.2,0.4,0.4,0.4,0.7c0,0.2,0,0.6,0,0.9c-0.1,0.7-0.4,1.2-1.1,1.5c-0.2,0.1-0.5,0.2-0.8,0.2c-0.1,0-0.3,0-0.4,0l-0.4,0H75.3z"
			/>
	</g>
	<path id="XMLID_960_" class="st0" d="M22.8,4l5.2,3v6l-5.2,3l-5.2-3v-6L22.8,4 M22.8,2.4l-6.6,3.8v7.7l6.6,3.8l6.6-3.8V6.2
		L22.8,2.4L22.8,2.4z"/>
	<g id="XMLID_958_">
		<path id="XMLID_959_" class="st2" d="M19.6,10.2c-0.2,0-0.4-0.1-0.5-0.3C18.9,9.6,19,9.2,19.3,9l2.2-1.2c0.3-0.2,0.7-0.1,0.8,0.2
			c0.2,0.3,0.1,0.7-0.2,0.8l-2.2,1.2C19.8,10.1,19.7,10.2,19.6,10.2z"/>
	</g>
	<g id="XMLID_956_">
		<path id="XMLID_957_" class="st2" d="M23.4,8c-0.2,0-0.4-0.1-0.5-0.3c-0.2-0.3-0.1-0.7,0.2-0.8l0.8-0.5c0.3-0.2,0.7-0.1,0.8,0.2
			c0.2,0.3,0.1,0.7-0.2,0.8l-0.8,0.5C23.6,7.9,23.5,8,23.4,8z"/>
	</g>
	<g id="XMLID_875_">
		<path id="XMLID_876_" class="st3" d="M20.5,12c-0.2,0-0.4-0.1-0.5-0.3c-0.2-0.3-0.1-0.7,0.2-0.8l0,0c0.3-0.2,0.7-0.1,0.8,0.2
			c0.2,0.3,0.1,0.7-0.2,0.8l0,0C20.7,12,20.6,12,20.5,12z"/>
	</g>
	<g id="XMLID_780_">
		<path id="XMLID_874_" class="st3" d="M22.1,11.1c-0.2,0-0.4-0.1-0.5-0.3c-0.2-0.3-0.1-0.7,0.2-0.8l2.9-1.7
			c0.3-0.2,0.7-0.1,0.8,0.2c0.2,0.3,0.1,0.7-0.2,0.8L22.4,11C22.3,11,22.2,11.1,22.1,11.1z"/>
	</g>
	<g id="XMLID_778_">
		<path id="XMLID_779_" class="st0" d="M21.4,13.9c-0.2,0-0.4-0.1-0.5-0.3c-0.2-0.3-0.1-0.7,0.2-0.8l4.6-2.7
			c0.3-0.2,0.7-0.1,0.8,0.2c0.2,0.3,0.1,0.7-0.2,0.8l-4.6,2.7C21.6,13.8,21.5,13.9,21.4,13.9z"/>
	</g>
</g>
</svg>
